<mxfile host="app.diagrams.net" modified="2024-04-01T01:24:21.871Z" agent="Mozilla/5.0 (X11; Linux x86_64) AppleWebKit/537.36 (KHTML, like Gecko) Chrome/123.0.0.0 Safari/537.36" etag="_bfqxCZgRLN3PNVqibEB" version="24.2.1" type="github">
  <diagram id="C5RBs43oDa-KdzZeNtuy" name="Page-1">
    <mxGraphModel dx="994" dy="600" grid="1" gridSize="10" guides="1" tooltips="1" connect="1" arrows="1" fold="1" page="1" pageScale="1" pageWidth="827" pageHeight="1169" math="0" shadow="0">
      <root>
        <mxCell id="WIyWlLk6GJQsqaUBKTNV-0" />
        <mxCell id="WIyWlLk6GJQsqaUBKTNV-1" parent="WIyWlLk6GJQsqaUBKTNV-0" />
        <mxCell id="KbMPlIY5UveXOfdK7gHr-2" value="" style="edgeStyle=orthogonalEdgeStyle;rounded=0;orthogonalLoop=1;jettySize=auto;html=1;" edge="1" parent="WIyWlLk6GJQsqaUBKTNV-1" source="KbMPlIY5UveXOfdK7gHr-0" target="KbMPlIY5UveXOfdK7gHr-1">
          <mxGeometry relative="1" as="geometry" />
        </mxCell>
        <mxCell id="KbMPlIY5UveXOfdK7gHr-0" value="" style="strokeWidth=2;html=1;shape=mxgraph.flowchart.start_2;whiteSpace=wrap;" vertex="1" parent="WIyWlLk6GJQsqaUBKTNV-1">
          <mxGeometry x="360" y="40" width="80" height="80" as="geometry" />
        </mxCell>
        <mxCell id="KbMPlIY5UveXOfdK7gHr-5" value="" style="edgeStyle=orthogonalEdgeStyle;rounded=0;orthogonalLoop=1;jettySize=auto;html=1;" edge="1" parent="WIyWlLk6GJQsqaUBKTNV-1" source="KbMPlIY5UveXOfdK7gHr-1" target="KbMPlIY5UveXOfdK7gHr-4">
          <mxGeometry relative="1" as="geometry" />
        </mxCell>
        <mxCell id="KbMPlIY5UveXOfdK7gHr-1" value="&amp;nbsp; &amp;nbsp;int digit [10] [7] {};&lt;div&gt;&amp;nbsp; &amp;nbsp;const int BUTTON_PIN = 13;&lt;/div&gt;&lt;div&gt;&amp;nbsp; &amp;nbsp;int clicks = 0;&lt;/div&gt;" style="whiteSpace=wrap;html=1;strokeWidth=2;align=left;" vertex="1" parent="WIyWlLk6GJQsqaUBKTNV-1">
          <mxGeometry x="315" y="150" width="170" height="90" as="geometry" />
        </mxCell>
        <mxCell id="KbMPlIY5UveXOfdK7gHr-4" value="" style="whiteSpace=wrap;html=1;align=left;strokeWidth=2;" vertex="1" parent="WIyWlLk6GJQsqaUBKTNV-1">
          <mxGeometry x="340" y="270" width="120" height="60" as="geometry" />
        </mxCell>
      </root>
    </mxGraphModel>
  </diagram>
</mxfile>
